<mxfile host="app.diagrams.net" modified="2020-12-14T03:12:48.035Z" agent="5.0 (X11)" etag="PcrT2gVait80RckzIe5Y" version="14.0.1" type="github">
  <diagram id="3ddYDju-GY4ESvOwRW6C" name="Page-1">
    <mxGraphModel dx="981" dy="539" grid="1" gridSize="10" guides="1" tooltips="1" connect="1" arrows="1" fold="1" page="1" pageScale="1" pageWidth="827" pageHeight="1169" math="0" shadow="0">
      <root>
        <mxCell id="0" />
        <mxCell id="1" parent="0" />
        <mxCell id="_KzIcOepq-4StEWX0fqk-1" value="Get target unit&#39;s stats" style="rounded=0;whiteSpace=wrap;html=1;" vertex="1" parent="1">
          <mxGeometry x="354" y="230" width="120" height="40" as="geometry" />
        </mxCell>
      </root>
    </mxGraphModel>
  </diagram>
</mxfile>
